<svg xmlns="http://www.w3.org/2000/svg" xmlns:xlink="http://www.w3.org/1999/xlink" width="40" zoomAndPan="magnify" viewBox="0 0 30 30.000001" height="40" preserveAspectRatio="xMidYMid meet" version="1.0"><defs><clipPath id="da6a6bf11e"><path d="M 12 19 L 18 19 L 18 27.21875 L 12 27.21875 Z M 12 19 " clip-rule="nonzero"/></clipPath><clipPath id="cee0706cf5"><path d="M 5.828125 7 L 23.972656 7 L 23.972656 27.21875 L 5.828125 27.21875 Z M 5.828125 7 " clip-rule="nonzero"/></clipPath><clipPath id="0d42c611ab"><path d="M 5.828125 1.820312 L 23.972656 1.820312 L 23.972656 7 L 5.828125 7 Z M 5.828125 1.820312 " clip-rule="nonzero"/></clipPath></defs><path fill="#000000" d="M 11.101562 10.246094 L 10.910156 10.246094 C 10.492188 10.246094 10.152344 10.585938 10.152344 11.003906 L 10.152344 12.640625 L 11.859375 12.640625 L 11.859375 11.003906 C 11.859375 10.585938 11.519531 10.246094 11.101562 10.246094 " fill-opacity="1" fill-rule="nonzero"/><g clip-path="url(#da6a6bf11e)"><path fill="#000000" d="M 17.363281 21.976562 C 17.363281 21.699219 17.230469 21.429688 17.003906 21.261719 L 15.527344 20.167969 C 15.210938 19.933594 14.785156 19.933594 14.464844 20.167969 L 12.996094 21.261719 C 12.769531 21.425781 12.632812 21.695312 12.632812 21.976562 L 12.632812 27.210938 L 17.363281 27.210938 L 17.363281 21.976562 " fill-opacity="1" fill-rule="nonzero"/></g><path fill="#000000" d="M 19.402344 14.390625 L 19.210938 14.390625 C 18.792969 14.390625 18.453125 14.730469 18.453125 15.148438 L 18.453125 16.785156 L 20.160156 16.785156 L 20.160156 15.148438 C 20.160156 14.730469 19.820312 14.390625 19.402344 14.390625 " fill-opacity="1" fill-rule="nonzero"/><g clip-path="url(#cee0706cf5)"><path fill="#000000" d="M 20.757812 17.082031 C 20.757812 17.25 20.625 17.378906 20.460938 17.378906 L 18.152344 17.378906 C 17.988281 17.378906 17.855469 17.25 17.855469 17.082031 L 17.855469 15.148438 C 17.855469 14.398438 18.464844 13.792969 19.210938 13.792969 L 19.402344 13.792969 C 20.152344 13.792969 20.757812 14.398438 20.757812 15.148438 Z M 12.457031 12.9375 C 12.457031 13.101562 12.324219 13.238281 12.160156 13.238281 L 9.851562 13.238281 C 9.6875 13.238281 9.554688 13.101562 9.554688 12.9375 L 9.554688 11.003906 C 9.554688 10.257812 10.164062 9.648438 10.910156 9.648438 L 11.101562 9.648438 C 11.851562 9.648438 12.457031 10.257812 12.457031 11.003906 Z M 23.976562 27.070312 C 24.058594 26.980469 24.09375 26.867188 24.082031 26.746094 L 21.972656 7.511719 L 8.027344 7.511719 L 5.914062 26.746094 C 5.898438 26.867188 5.9375 26.980469 6.019531 27.070312 C 6.101562 27.164062 6.210938 27.210938 6.332031 27.210938 L 12.035156 27.210938 L 12.035156 21.976562 C 12.035156 21.507812 12.261719 21.058594 12.640625 20.78125 L 14.109375 19.6875 C 14.640625 19.292969 15.355469 19.292969 15.882812 19.6875 L 17.359375 20.78125 C 17.738281 21.0625 17.960938 21.507812 17.960938 21.976562 L 17.960938 27.210938 L 23.664062 27.210938 C 23.785156 27.210938 23.894531 27.164062 23.976562 27.070312 " fill-opacity="1" fill-rule="nonzero"/></g><g clip-path="url(#0d42c611ab)"><path fill="#000000" d="M 24.167969 2.042969 C 24.167969 1.921875 24.070312 1.820312 23.945312 1.820312 L 22.394531 1.820312 C 22.273438 1.820312 22.171875 1.921875 22.171875 2.042969 L 22.171875 4.085938 C 22.171875 4.253906 22.039062 4.386719 21.871094 4.386719 L 19.105469 4.386719 C 18.9375 4.386719 18.804688 4.253906 18.804688 4.085938 L 18.804688 2.042969 C 18.804688 1.921875 18.703125 1.820312 18.582031 1.820312 L 16.90625 1.820312 C 16.78125 1.820312 16.683594 1.921875 16.683594 2.042969 L 16.683594 4.085938 C 16.683594 4.253906 16.550781 4.386719 16.386719 4.386719 L 13.613281 4.386719 C 13.445312 4.386719 13.316406 4.253906 13.316406 4.085938 L 13.316406 2.042969 C 13.3125 1.921875 13.210938 1.820312 13.089844 1.820312 L 11.414062 1.820312 C 11.292969 1.820312 11.195312 1.921875 11.195312 2.042969 L 11.195312 4.085938 C 11.195312 4.253906 11.058594 4.386719 10.894531 4.386719 L 8.121094 4.386719 C 7.957031 4.386719 7.824219 4.253906 7.824219 4.085938 L 7.824219 2.042969 C 7.824219 1.921875 7.722656 1.820312 7.601562 1.820312 L 6.050781 1.820312 C 5.929688 1.820312 5.828125 1.921875 5.828125 2.042969 L 5.828125 6.363281 C 5.828125 6.691406 6.097656 6.957031 6.425781 6.957031 L 7.601562 6.957031 C 7.648438 6.929688 7.699219 6.914062 7.753906 6.914062 L 22.242188 6.914062 C 22.300781 6.914062 22.347656 6.929688 22.394531 6.957031 L 23.570312 6.957031 C 23.898438 6.957031 24.167969 6.691406 24.167969 6.363281 L 24.167969 2.042969 " fill-opacity="1" fill-rule="nonzero"/></g></svg>