<svg xmlns="http://www.w3.org/2000/svg" xmlns:xlink="http://www.w3.org/1999/xlink" width="40" zoomAndPan="magnify" viewBox="0 0 30 30.000001" height="40" preserveAspectRatio="xMidYMid meet" version="1.0"><defs><clipPath id="1432ee61d3"><path d="M 0.484375 10 L 3 10 L 3 14 L 0.484375 14 Z M 0.484375 10 " clip-rule="nonzero"/></clipPath><clipPath id="075041d6c5"><path d="M 18 26 L 22 26 L 22 29.03125 L 18 29.03125 Z M 18 26 " clip-rule="nonzero"/></clipPath><clipPath id="0fba76c59d"><path d="M 27 16 L 29.515625 16 L 29.515625 19 L 27 19 Z M 27 16 " clip-rule="nonzero"/></clipPath><clipPath id="0bc2fba2d3"><path d="M 0.484375 10 L 3 10 L 3 14 L 0.484375 14 Z M 0.484375 10 " clip-rule="nonzero"/></clipPath><clipPath id="31dc8f934d"><path d="M 28 16 L 29.515625 16 L 29.515625 19 L 28 19 Z M 28 16 " clip-rule="nonzero"/></clipPath></defs><path fill="#000000" d="M 4.855469 8.320312 C 7.023438 8.441406 7.957031 7.425781 7.699219 5.328125 C 7.648438 4.910156 7.617188 4.488281 7.640625 4.070312 C 7.683594 3.320312 8.207031 3.03125 8.871094 3.394531 C 9.21875 3.582031 9.53125 3.839844 9.871094 4.050781 C 11.210938 4.886719 12.59375 4.496094 13.300781 3.085938 C 13.542969 2.597656 13.742188 2.082031 14.03125 1.625 C 14.457031 0.957031 15.082031 0.996094 15.457031 1.691406 C 15.683594 2.117188 15.835938 2.582031 16.0625 3.007812 C 16.664062 4.15625 17.851562 4.539062 19.003906 3.929688 C 19.484375 3.679688 19.917969 3.335938 20.375 3.039062 C 20.742188 2.800781 21.132812 2.609375 21.550781 2.871094 C 21.933594 3.113281 21.871094 3.527344 21.84375 3.902344 C 21.808594 4.34375 21.714844 4.78125 21.703125 5.21875 C 21.671875 6.609375 22.6875 7.550781 24.085938 7.433594 C 24.566406 7.394531 25.046875 7.324219 25.527344 7.292969 C 25.875 7.269531 26.199219 7.339844 26.394531 7.683594 C 26.59375 8.03125 26.441406 8.332031 26.257812 8.625 C 25.988281 9.046875 25.675781 9.449219 25.4375 9.894531 C 24.820312 11.050781 25.152344 12.152344 26.300781 12.789062 C 26.777344 13.054688 27.296875 13.238281 27.773438 13.503906 C 28.554688 13.953125 28.542969 14.582031 27.757812 15.03125 C 27.375 15.25 26.96875 15.429688 26.585938 15.644531 C 25.351562 16.34375 25.035156 17.542969 25.777344 18.753906 C 26.019531 19.144531 26.324219 19.5 26.570312 19.890625 C 26.789062 20.234375 26.960938 20.613281 26.691406 21.007812 C 26.441406 21.367188 26.054688 21.378906 25.667969 21.339844 C 22.984375 21.085938 22.242188 21.839844 22.511719 24.554688 C 22.515625 24.597656 22.523438 24.636719 22.523438 24.679688 C 22.535156 25.164062 22.621094 25.691406 22.128906 25.996094 C 21.601562 26.316406 21.21875 25.914062 20.839844 25.625 C 20.230469 25.160156 19.613281 24.742188 18.78125 24.851562 C 18.074219 24.945312 17.578125 25.320312 17.253906 25.9375 C 17.011719 26.402344 16.792969 26.878906 16.550781 27.347656 C 16.375 27.6875 16.171875 28.035156 15.730469 28.039062 C 15.273438 28.039062 15.105469 27.671875 14.941406 27.324219 C 14.828125 27.074219 14.730469 26.820312 14.609375 26.574219 C 13.894531 25.117188 12.488281 24.742188 11.152344 25.652344 C 10.773438 25.914062 10.410156 26.210938 10.003906 26.425781 C 9.34375 26.777344 8.820312 26.449219 8.824219 25.699219 C 8.824219 25.21875 8.914062 24.734375 8.917969 24.253906 C 8.925781 23.027344 8.046875 22.132812 6.820312 22.136719 C 6.214844 22.136719 5.605469 22.246094 5 22.253906 C 4.148438 22.269531 3.820312 21.71875 4.226562 20.960938 C 4.453125 20.539062 4.757812 20.152344 4.988281 19.730469 C 5.59375 18.609375 5.28125 17.554688 4.160156 16.953125 C 3.625 16.667969 3.039062 16.46875 2.507812 16.179688 C 1.703125 15.734375 1.707031 15.066406 2.507812 14.597656 C 2.886719 14.375 3.304688 14.222656 3.691406 14.007812 C 4.871094 13.359375 5.199219 12.253906 4.542969 11.070312 C 4.300781 10.632812 3.964844 10.246094 3.675781 9.832031 C 3.421875 9.464844 3.132812 9.078125 3.40625 8.621094 C 3.664062 8.191406 4.128906 8.265625 4.550781 8.292969 C 4.675781 8.300781 4.800781 8.316406 4.855469 8.320312 Z M 4.855469 8.320312 " fill-opacity="1" fill-rule="nonzero"/><path fill="#000000" d="M 3.101562 26.589844 C 3.34375 26.15625 3.164062 25.804688 2.765625 25.457031 C 2.4375 25.167969 2.570312 24.835938 3.050781 24.78125 C 3.582031 24.722656 3.925781 24.550781 4.128906 24.015625 C 4.289062 23.601562 4.707031 23.601562 4.855469 24.011719 C 5.039062 24.519531 5.296875 24.796875 5.84375 24.902344 C 6.273438 24.984375 6.304688 25.34375 5.96875 25.589844 C 5.605469 25.855469 5.414062 26.128906 5.546875 26.585938 C 5.601562 26.773438 5.566406 26.957031 5.390625 27.09375 C 5.175781 27.257812 4.980469 27.164062 4.816406 27.03125 C 4.453125 26.726562 4.125 26.769531 3.734375 27.015625 C 3.320312 27.273438 3.078125 27.109375 3.101562 26.589844 Z M 3.101562 26.589844 " fill-opacity="1" fill-rule="nonzero"/><path fill="#000000" d="M 23.828125 4.871094 C 24.027344 4.503906 23.917969 4.195312 23.589844 3.867188 C 23.265625 3.546875 23.457031 3.246094 23.851562 3.214844 C 24.328125 3.179688 24.632812 3 24.8125 2.5625 C 24.886719 2.386719 25.011719 2.234375 25.234375 2.246094 C 25.496094 2.257812 25.585938 2.460938 25.640625 2.664062 C 25.746094 3.03125 25.921875 3.292969 26.347656 3.347656 C 26.5625 3.378906 26.824219 3.46875 26.847656 3.75 C 26.871094 3.992188 26.667969 4.132812 26.480469 4.214844 C 26.121094 4.371094 26.082031 4.640625 26.121094 4.976562 C 26.148438 5.191406 26.117188 5.410156 25.898438 5.523438 C 25.671875 5.640625 25.476562 5.515625 25.335938 5.367188 C 25.050781 5.0625 24.792969 5.109375 24.457031 5.296875 C 24.027344 5.535156 23.789062 5.363281 23.828125 4.871094 Z M 23.828125 4.871094 " fill-opacity="1" fill-rule="nonzero"/><g clip-path="url(#1432ee61d3)"><path fill="#000000" d="M -0.0898438 13.035156 C 0.0703125 12.625 -0.0625 12.316406 -0.414062 12.015625 C -0.730469 11.746094 -0.585938 11.445312 -0.210938 11.390625 C 0.246094 11.324219 0.527344 11.136719 0.71875 10.699219 C 0.902344 10.277344 1.203125 10.332031 1.394531 10.71875 C 1.574219 11.074219 1.769531 11.308594 2.210938 11.375 C 2.738281 11.457031 2.828125 11.828125 2.402344 12.148438 C 2.089844 12.382812 2.078125 12.625 2.109375 12.957031 C 2.160156 13.527344 1.945312 13.675781 1.453125 13.386719 C 1.125 13.195312 0.867188 13.164062 0.539062 13.382812 C 0.195312 13.609375 -0.0585938 13.523438 -0.0898438 13.035156 Z M -0.0898438 13.035156 " fill-opacity="1" fill-rule="nonzero"/></g><g clip-path="url(#075041d6c5)"><path fill="#000000" d="M 18.761719 28.527344 C 18.914062 28.207031 18.824219 27.949219 18.535156 27.679688 C 18.222656 27.386719 18.304688 27.085938 18.761719 27.039062 C 19.136719 27.003906 19.351562 26.863281 19.523438 26.515625 C 19.753906 26.050781 20.085938 26.050781 20.261719 26.523438 C 20.394531 26.875 20.597656 26.992188 20.925781 27.078125 C 21.375 27.1875 21.472656 27.480469 21.101562 27.792969 C 20.867188 27.992188 20.785156 28.179688 20.808594 28.488281 C 20.84375 29.046875 20.664062 29.164062 20.199219 28.890625 C 19.890625 28.710938 19.652344 28.6875 19.339844 28.875 C 19.042969 29.046875 18.753906 29.03125 18.761719 28.527344 Z M 18.761719 28.527344 " fill-opacity="1" fill-rule="nonzero"/></g><g clip-path="url(#0fba76c59d)"><path fill="#000000" d="M 28.019531 18.363281 C 28.140625 18.125 28.003906 17.960938 27.84375 17.769531 C 27.511719 17.367188 27.585938 17.144531 28.109375 17.058594 C 28.433594 17.007812 28.5625 16.839844 28.703125 16.585938 C 28.984375 16.082031 29.230469 16.070312 29.492188 16.566406 C 29.652344 16.871094 29.84375 17.03125 30.195312 17.101562 C 30.65625 17.195312 30.71875 17.492188 30.347656 17.800781 C 30.109375 17.996094 30.019531 18.171875 30.042969 18.488281 C 30.085938 18.996094 29.863281 19.121094 29.394531 18.859375 C 29.128906 18.714844 28.933594 18.675781 28.648438 18.839844 C 28.175781 19.113281 27.96875 18.945312 28.019531 18.363281 Z M 28.019531 18.363281 " fill-opacity="1" fill-rule="nonzero"/></g><path fill="#000000" d="M 9.570312 2.066406 C 9.660156 1.8125 9.523438 1.625 9.335938 1.429688 C 9.007812 1.097656 9.125 0.847656 9.550781 0.789062 C 9.878906 0.742188 10.058594 0.605469 10.214844 0.316406 C 10.445312 -0.113281 10.710938 -0.105469 10.925781 0.328125 C 11.058594 0.59375 11.191406 0.746094 11.5 0.8125 C 11.917969 0.902344 12.082031 1.183594 11.703125 1.515625 C 11.484375 1.707031 11.417969 1.886719 11.441406 2.164062 C 11.484375 2.65625 11.246094 2.785156 10.835938 2.519531 C 10.59375 2.363281 10.398438 2.382812 10.144531 2.507812 C 9.640625 2.761719 9.542969 2.675781 9.570312 2.066406 Z M 9.570312 2.066406 " fill-opacity="1" fill-rule="nonzero"/><path fill="#ff66c4" d="M 4.996094 8.652344 C 7.074219 8.824219 8.21875 7.699219 8.09375 5.617188 C 8.0625 5.136719 7.976562 4.652344 7.992188 4.171875 C 8.007812 3.589844 8.335938 3.425781 8.828125 3.722656 C 9.242188 3.96875 9.621094 4.277344 10.042969 4.507812 C 11.265625 5.183594 12.730469 4.78125 13.429688 3.570312 C 13.710938 3.082031 13.921875 2.550781 14.183594 2.046875 C 14.308594 1.808594 14.441406 1.535156 14.761719 1.527344 C 15.109375 1.515625 15.179688 1.828125 15.296875 2.070312 C 15.460938 2.410156 15.59375 2.765625 15.765625 3.101562 C 16.460938 4.484375 17.917969 4.945312 19.277344 4.195312 C 19.75 3.933594 20.179688 3.585938 20.640625 3.292969 C 20.871094 3.148438 21.140625 3 21.402344 3.195312 C 21.636719 3.371094 21.574219 3.652344 21.550781 3.898438 C 21.507812 4.402344 21.410156 4.90625 21.417969 5.40625 C 21.4375 6.816406 22.5625 7.847656 23.972656 7.773438 C 24.453125 7.75 24.933594 7.660156 25.414062 7.613281 C 25.664062 7.589844 25.949219 7.578125 26.101562 7.824219 C 26.253906 8.074219 26.105469 8.308594 25.964844 8.523438 C 25.734375 8.875 25.476562 9.210938 25.265625 9.574219 C 24.414062 11.023438 24.816406 12.402344 26.3125 13.167969 C 26.707031 13.367188 27.117188 13.53125 27.511719 13.726562 C 27.734375 13.839844 28 13.949219 28.019531 14.238281 C 28.039062 14.539062 27.765625 14.65625 27.550781 14.777344 C 27.203125 14.972656 26.832031 15.128906 26.488281 15.324219 C 24.992188 16.183594 24.664062 17.644531 25.632812 19.070312 C 25.902344 19.46875 26.234375 19.828125 26.421875 20.28125 C 26.613281 20.730469 26.457031 20.984375 25.976562 20.988281 C 25.640625 20.992188 25.304688 20.941406 24.96875 20.910156 C 23.277344 20.75 22.074219 21.863281 22.117188 23.5625 C 22.132812 24.066406 22.183594 24.570312 22.214844 25.074219 C 22.230469 25.335938 22.210938 25.59375 21.949219 25.734375 C 21.699219 25.871094 21.507812 25.6875 21.324219 25.5625 C 21.011719 25.351562 20.722656 25.101562 20.402344 24.898438 C 19.183594 24.136719 17.757812 24.472656 17.023438 25.714844 C 16.726562 26.21875 16.523438 26.78125 16.230469 27.289062 C 15.914062 27.851562 15.59375 27.828125 15.296875 27.25 C 15.101562 26.878906 14.957031 26.480469 14.75 26.113281 C 14.039062 24.851562 12.511719 24.449219 11.273438 25.199219 C 10.859375 25.449219 10.480469 25.757812 10.078125 26.027344 C 9.867188 26.167969 9.628906 26.289062 9.375 26.144531 C 9.121094 26 9.195312 25.742188 9.203125 25.515625 C 9.21875 25.179688 9.257812 24.847656 9.28125 24.511719 C 9.402344 22.84375 8.160156 21.628906 6.507812 21.796875 C 6.066406 21.84375 5.628906 21.917969 5.191406 21.941406 C 4.445312 21.976562 4.257812 21.671875 4.609375 21.03125 C 4.839844 20.609375 5.121094 20.210938 5.339844 19.78125 C 5.953125 18.589844 5.667969 17.5 4.519531 16.792969 C 3.972656 16.453125 3.355469 16.21875 2.773438 15.925781 C 2.550781 15.816406 2.28125 15.71875 2.285156 15.410156 C 2.292969 15.121094 2.535156 14.988281 2.757812 14.867188 C 3.109375 14.679688 3.476562 14.519531 3.824219 14.324219 C 5.3125 13.5 5.652344 12.066406 4.699219 10.648438 C 4.449219 10.28125 4.167969 9.941406 3.925781 9.574219 C 3.777344 9.355469 3.566406 9.125 3.742188 8.828125 C 3.902344 8.566406 4.179688 8.625 4.429688 8.625 C 4.617188 8.625 4.804688 8.644531 4.996094 8.652344 Z M 4.996094 8.652344 " fill-opacity="1" fill-rule="nonzero"/><path fill="#ff66c4" d="M 3.03125 25.195312 C 3.769531 25.125 4.25 24.835938 4.46875 24.105469 C 4.707031 24.753906 4.949219 25.3125 5.84375 25.226562 C 5.09375 25.59375 5.046875 26.144531 5.28125 26.964844 C 4.632812 26.464844 4.117188 26.160156 3.503906 26.746094 C 3.664062 26.101562 3.65625 25.566406 3.03125 25.195312 Z M 3.03125 25.195312 " fill-opacity="1" fill-rule="nonzero"/><path fill="#ff66c4" d="M 24.167969 5.101562 C 24.394531 4.433594 24.363281 3.960938 23.667969 3.535156 C 24.503906 3.546875 24.960938 3.257812 25.210938 2.585938 C 25.40625 3.261719 25.789062 3.648438 26.621094 3.691406 C 26.046875 4.070312 25.632812 4.382812 25.828125 5.019531 C 25.886719 5.207031 25.6875 5.277344 25.554688 5.125 C 25.175781 4.695312 24.757812 4.734375 24.167969 5.101562 Z M 24.167969 5.101562 " fill-opacity="1" fill-rule="nonzero"/><g clip-path="url(#0bc2fba2d3)"><path fill="#ff66c4" d="M 1.835938 13.28125 C 1.269531 12.78125 0.792969 12.753906 0.234375 13.195312 C 0.375 12.558594 0.375 12.070312 -0.222656 11.757812 C 0.398438 11.652344 0.863281 11.464844 0.984375 10.625 C 1.308594 11.316406 1.550781 11.800781 2.285156 11.703125 C 1.785156 12.09375 1.605469 12.554688 1.835938 13.28125 Z M 1.835938 13.28125 " fill-opacity="1" fill-rule="nonzero"/></g><path fill="#ff66c4" d="M 20.4375 28.675781 C 20.023438 28.375 19.628906 28.253906 19.175781 28.613281 C 19.148438 28.144531 19.285156 27.691406 18.644531 27.410156 C 19.265625 27.328125 19.6875 27.1875 19.816406 26.5625 C 20.085938 26.992188 20.246094 27.417969 20.78125 27.367188 C 20.886719 27.355469 20.929688 27.550781 20.8125 27.59375 C 20.292969 27.78125 20.519531 28.25 20.4375 28.675781 Z M 20.4375 28.675781 " fill-opacity="1" fill-rule="nonzero"/><g clip-path="url(#31dc8f934d)"><path fill="#ff66c4" d="M 28.363281 18.660156 C 28.480469 18.101562 28.492188 17.726562 28.035156 17.46875 C 28.597656 17.390625 28.902344 17.066406 29.105469 16.5625 C 29.386719 17 29.503906 17.542969 30.214844 17.359375 C 29.839844 17.761719 29.621094 18.128906 29.824219 18.726562 C 29.316406 18.382812 28.898438 18.226562 28.363281 18.660156 Z M 28.363281 18.660156 " fill-opacity="1" fill-rule="nonzero"/></g><path fill="#ff66c4" d="M 10.535156 0.410156 C 10.710938 0.945312 11.070312 1.113281 11.625 1.175781 C 11.117188 1.429688 11.019531 1.78125 11.125 2.273438 C 10.707031 2.089844 10.347656 1.933594 9.925781 2.289062 C 9.945312 1.820312 9.933594 1.441406 9.523438 1.167969 C 9.964844 1.003906 10.457031 1.011719 10.535156 0.410156 Z M 10.535156 0.410156 " fill-opacity="1" fill-rule="nonzero"/><path fill="#000000" d="M 5.632812 14.449219 C 5.652344 9.148438 9.828125 5.003906 15.117188 5.035156 C 20.207031 5.066406 24.351562 9.378906 24.332031 14.621094 C 24.3125 19.785156 20.105469 23.914062 14.902344 23.882812 C 9.746094 23.851562 5.613281 19.644531 5.632812 14.449219 Z M 5.632812 14.449219 " fill-opacity="1" fill-rule="nonzero"/><path fill="#ff66c4" d="M 24.015625 14.480469 C 24.019531 19.542969 20.035156 23.523438 14.960938 23.519531 C 9.988281 23.515625 5.980469 19.453125 6 14.4375 C 6.019531 9.390625 10.0625 5.339844 15.054688 5.363281 C 19.980469 5.382812 24.011719 9.488281 24.015625 14.480469 Z M 24.015625 14.480469 " fill-opacity="1" fill-rule="nonzero"/><path fill="#000000" d="M 19.515625 15.09375 C 18.5 15.171875 17.550781 15.046875 16.796875 14.257812 C 16.589844 14.042969 16.429688 13.804688 16.308594 13.53125 C 15.90625 12.59375 15.691406 12.460938 14.675781 12.507812 C 13.8125 12.546875 13.605469 12.714844 13.40625 13.535156 C 13.132812 14.683594 12.167969 15.460938 10.894531 15.558594 C 10.664062 15.578125 10.433594 15.578125 10.203125 15.585938 C 9.566406 15.726562 8.9375 15.460938 8.585938 14.898438 C 8.023438 14.28125 7.707031 13.578125 7.75 12.730469 C 7.773438 12.269531 7.976562 11.960938 8.425781 11.867188 C 9.808594 11.570312 11.210938 11.5 12.621094 11.523438 C 12.914062 11.527344 13.179688 11.6875 13.253906 11.96875 C 13.363281 12.402344 13.5625 12.410156 13.921875 12.25 C 14.480469 12 15.078125 12.023438 15.648438 12.183594 C 15.949219 12.269531 16.0625 12.222656 16.117188 11.917969 C 16.1875 11.507812 16.496094 11.316406 16.867188 11.261719 C 18.183594 11.078125 19.507812 11.066406 20.832031 11.105469 C 21.371094 11.125 21.660156 11.433594 21.726562 11.980469 C 21.839844 12.921875 21.523438 13.710938 20.949219 14.429688 C 20.640625 15.011719 20.144531 15.195312 19.515625 15.09375 Z M 19.515625 15.09375 " fill-opacity="1" fill-rule="nonzero"/><path fill="#f0a2a8" d="M 19.515625 15.09375 C 20.046875 14.984375 20.53125 14.773438 20.953125 14.429688 C 21.324219 14.410156 21.703125 14.34375 22.066406 14.492188 C 22.347656 14.605469 22.570312 14.773438 22.59375 15.121094 C 22.613281 15.464844 22.441406 15.679688 22.160156 15.816406 C 21.441406 16.164062 20.710938 16.171875 19.988281 15.832031 C 19.6875 15.6875 19.476562 15.46875 19.515625 15.09375 Z M 19.515625 15.09375 " fill-opacity="1" fill-rule="nonzero"/><path fill="#f0a2a8" d="M 8.585938 14.898438 C 9.074219 15.25 9.597656 15.507812 10.203125 15.589844 C 10.269531 15.984375 10.066406 16.238281 9.75 16.40625 C 9.1875 16.710938 8.589844 16.777344 7.984375 16.558594 C 7.636719 16.4375 7.308594 16.230469 7.3125 15.816406 C 7.320312 15.410156 7.640625 15.203125 7.980469 15.0625 C 8.171875 14.980469 8.382812 14.949219 8.585938 14.898438 Z M 8.585938 14.898438 " fill-opacity="1" fill-rule="nonzero"/><path fill="#000000" d="M 13.875 14.363281 C 14.097656 14.347656 14.128906 14.496094 14.199219 14.589844 C 14.667969 15.210938 15.226562 15.21875 15.6875 14.617188 C 15.78125 14.496094 15.828125 14.21875 16.019531 14.332031 C 16.238281 14.464844 16.035156 14.671875 15.949219 14.820312 C 15.65625 15.316406 15.078125 15.558594 14.605469 15.359375 C 14.179688 15.179688 13.816406 14.921875 13.875 14.363281 Z M 13.875 14.363281 " fill-opacity="1" fill-rule="nonzero"/><path fill="#ffffff" d="M 19.890625 11.632812 C 19.859375 11.6875 19.828125 11.742188 19.796875 11.796875 C 19.324219 12.613281 18.855469 13.433594 18.375 14.242188 C 18.289062 14.386719 18.203125 14.644531 17.957031 14.476562 C 17.761719 14.347656 17.898438 14.179688 17.984375 14.039062 C 18.445312 13.261719 18.90625 12.488281 19.367188 11.710938 C 19.457031 11.5625 19.5625 11.429688 19.761719 11.464844 C 19.847656 11.476562 19.921875 11.519531 19.890625 11.632812 Z M 19.890625 11.632812 " fill-opacity="1" fill-rule="nonzero"/><path fill="#ffffff" d="M 9.386719 14.933594 C 9.148438 14.886719 9.140625 14.75 9.246094 14.570312 C 9.734375 13.742188 10.21875 12.914062 10.710938 12.089844 C 10.792969 11.957031 10.921875 11.851562 11.074219 11.949219 C 11.273438 12.082031 11.074219 12.203125 11.015625 12.3125 C 10.59375 13.078125 10.160156 13.839844 9.726562 14.601562 C 9.648438 14.738281 9.59375 14.914062 9.386719 14.933594 Z M 9.386719 14.933594 " fill-opacity="1" fill-rule="nonzero"/><path fill="#ffffff" d="M 10.371094 14.898438 C 10.75 13.933594 11.292969 13.101562 11.789062 12.242188 C 11.847656 12.136719 11.9375 12 12.078125 12.0625 C 12.308594 12.164062 12.121094 12.320312 12.070312 12.421875 C 11.671875 13.175781 11.253906 13.921875 10.847656 14.671875 C 10.761719 14.824219 10.675781 14.964844 10.371094 14.898438 Z M 10.371094 14.898438 " fill-opacity="1" fill-rule="nonzero"/><path fill="#ffffff" d="M 18.648438 11.542969 C 18.183594 12.339844 17.734375 13.113281 17.285156 13.886719 C 17.226562 13.992188 17.167969 14.066406 17.046875 13.984375 C 16.960938 13.921875 16.878906 13.832031 16.941406 13.71875 C 17.347656 12.988281 17.71875 12.230469 18.253906 11.574219 C 18.339844 11.464844 18.480469 11.492188 18.648438 11.542969 Z M 18.648438 11.542969 " fill-opacity="1" fill-rule="nonzero"/></svg>