<svg xmlns="http://www.w3.org/2000/svg" xmlns:xlink="http://www.w3.org/1999/xlink" width="40" zoomAndPan="magnify" viewBox="0 0 30 30.000001" height="40" preserveAspectRatio="xMidYMid meet" version="1.0"><defs><clipPath id="79a65a9bef"><path d="M 0.484375 2.453125 L 24 2.453125 L 24 5 L 0.484375 5 Z M 0.484375 2.453125 " clip-rule="nonzero"/></clipPath><clipPath id="366bcf0496"><path d="M 0.484375 22 L 24 22 L 24 25 L 0.484375 25 Z M 0.484375 22 " clip-rule="nonzero"/></clipPath><clipPath id="0398d70198"><path d="M 3 2.453125 L 22 2.453125 L 22 6 L 3 6 Z M 3 2.453125 " clip-rule="nonzero"/></clipPath><clipPath id="10c5947b27"><path d="M 3 2.453125 L 21 2.453125 L 21 6 L 3 6 Z M 3 2.453125 " clip-rule="nonzero"/></clipPath><clipPath id="586f5ba174"><path d="M 12 4 L 29.515625 4 L 29.515625 23 L 12 23 Z M 12 4 " clip-rule="nonzero"/></clipPath><clipPath id="979831d976"><path d="M 9 19 L 16 19 L 16 26.40625 L 9 26.40625 Z M 9 19 " clip-rule="nonzero"/></clipPath><clipPath id="8716ca08f1"><path d="M 9 25 L 11 25 L 11 26.40625 L 9 26.40625 Z M 9 25 " clip-rule="nonzero"/></clipPath></defs><g clip-path="url(#79a65a9bef)"><path fill="#8e3a2c" d="M 0.800781 4.261719 C 0.800781 4.261719 0.820312 4.257812 0.863281 4.242188 C 0.910156 4.226562 0.972656 4.199219 1.058594 4.171875 C 1.140625 4.140625 1.246094 4.109375 1.367188 4.070312 C 4.445312 3.128906 7.675781 2.804688 10.886719 2.75 C 12.066406 2.730469 13.246094 2.753906 14.425781 2.820312 C 15.132812 2.855469 15.828125 2.914062 16.496094 2.980469 C 18.609375 3.199219 20.730469 3.546875 22.757812 4.179688 C 22.835938 4.203125 22.910156 4.226562 22.980469 4.25 C 23.050781 4.273438 23.117188 4.296875 23.175781 4.316406 C 23.296875 4.355469 23.398438 4.390625 23.484375 4.421875 C 23.570312 4.453125 23.632812 4.476562 23.675781 4.496094 C 23.71875 4.511719 23.742188 4.519531 23.742188 4.519531 L 23.773438 4.535156 C 23.820312 4.550781 23.84375 4.605469 23.828125 4.65625 C 23.8125 4.691406 23.777344 4.714844 23.738281 4.714844 C 23.738281 4.714844 23.378906 4.714844 22.753906 4.71875 C 22.4375 4.722656 22.058594 4.722656 21.621094 4.726562 C 21.183594 4.726562 20.691406 4.730469 20.152344 4.726562 C 19.613281 4.726562 19.03125 4.726562 18.417969 4.726562 C 17.800781 4.722656 17.152344 4.726562 16.480469 4.714844 C 15.132812 4.707031 13.699219 4.695312 12.265625 4.683594 C 10.832031 4.664062 9.398438 4.640625 8.054688 4.625 C 7.382812 4.613281 6.734375 4.601562 6.117188 4.585938 C 5.5 4.574219 4.917969 4.5625 4.382812 4.550781 C 3.84375 4.542969 3.351562 4.527344 2.914062 4.515625 C 2.476562 4.503906 2.097656 4.492188 1.78125 4.484375 C 1.15625 4.46875 0.796875 4.457031 0.796875 4.457031 C 0.746094 4.457031 0.703125 4.414062 0.707031 4.359375 C 0.707031 4.320312 0.730469 4.289062 0.765625 4.277344 L 0.800781 4.261719 " fill-opacity="1" fill-rule="nonzero"/></g><g clip-path="url(#366bcf0496)"><path fill="#8e3a2c" d="M 0.574219 23.917969 C 0.574219 23.917969 0.597656 23.910156 0.640625 23.894531 C 0.683594 23.878906 0.75 23.851562 0.835938 23.824219 C 0.917969 23.796875 1.023438 23.761719 1.144531 23.722656 C 4.222656 22.78125 7.453125 22.457031 10.664062 22.40625 C 11.84375 22.382812 13.027344 22.40625 14.203125 22.472656 C 14.910156 22.511719 15.605469 22.566406 16.277344 22.636719 C 18.386719 22.851562 20.507812 23.199219 22.535156 23.835938 C 22.613281 23.859375 22.6875 23.882812 22.757812 23.902344 C 22.828125 23.925781 22.890625 23.949219 22.953125 23.96875 C 23.074219 24.007812 23.175781 24.046875 23.261719 24.074219 C 23.34375 24.105469 23.410156 24.132812 23.453125 24.148438 C 23.496094 24.164062 23.519531 24.175781 23.519531 24.175781 L 23.550781 24.1875 C 23.597656 24.203125 23.621094 24.261719 23.601562 24.308594 C 23.589844 24.34375 23.554688 24.367188 23.515625 24.367188 C 23.515625 24.367188 23.15625 24.371094 22.53125 24.371094 C 22.214844 24.375 21.835938 24.375 21.398438 24.378906 C 20.960938 24.382812 20.46875 24.382812 19.929688 24.382812 C 19.394531 24.378906 18.8125 24.378906 18.195312 24.378906 C 17.578125 24.378906 16.929688 24.378906 16.257812 24.371094 C 14.914062 24.359375 13.476562 24.347656 12.042969 24.335938 C 10.609375 24.316406 9.175781 24.296875 7.832031 24.277344 C 7.160156 24.269531 6.511719 24.253906 5.894531 24.242188 C 5.277344 24.230469 4.695312 24.21875 4.160156 24.207031 C 3.621094 24.195312 3.128906 24.183594 2.691406 24.171875 C 2.253906 24.15625 1.875 24.148438 1.558594 24.136719 C 0.933594 24.121094 0.574219 24.113281 0.574219 24.113281 C 0.519531 24.109375 0.480469 24.066406 0.484375 24.015625 C 0.484375 23.976562 0.507812 23.941406 0.542969 23.929688 L 0.574219 23.917969 " fill-opacity="1" fill-rule="nonzero"/></g><g clip-path="url(#0398d70198)"><path fill="#e1b985" d="M 21.417969 5.273438 L 3.121094 5.070312 L 3.148438 2.964844 L 21.441406 3.167969 L 21.417969 5.273438 " fill-opacity="1" fill-rule="nonzero"/></g><path fill="#e1b985" d="M 21.199219 24.523438 L 2.902344 24.320312 L 2.929688 22.214844 L 21.226562 22.417969 L 21.199219 24.523438 " fill-opacity="1" fill-rule="nonzero"/><g clip-path="url(#10c5947b27)"><path fill="#fcdd98" d="M 20.667969 5.777344 L 3.863281 5.59375 L 3.898438 2.460938 L 20.703125 2.648438 L 20.667969 5.777344 " fill-opacity="1" fill-rule="nonzero"/></g><path fill="#fcdd98" d="M 20.449219 25.027344 L 3.644531 24.839844 L 3.679688 21.707031 L 20.484375 21.894531 L 20.449219 25.027344 " fill-opacity="1" fill-rule="nonzero"/><path fill="#f9af77" d="M 19.679688 21.886719 L 4.484375 21.71875 L 4.664062 5.601562 L 19.863281 5.769531 L 19.679688 21.886719 " fill-opacity="1" fill-rule="nonzero"/><path fill="#da9762" d="M 6.6875 7.789062 L 6.199219 7.78125 C 5.992188 7.777344 5.824219 7.945312 5.820312 8.148438 C 5.820312 8.351562 5.984375 8.519531 6.191406 8.523438 L 6.675781 8.527344 L 6.6875 7.789062 " fill-opacity="1" fill-rule="nonzero"/><path fill="#da9762" d="M 12.382812 7.851562 L 8.789062 7.8125 L 8.78125 8.550781 L 12.375 8.59375 L 12.382812 7.851562 " fill-opacity="1" fill-rule="nonzero"/><path fill="#da9762" d="M 18.28125 7.917969 L 15.023438 7.878906 L 15.011719 8.621094 L 18.273438 8.65625 C 18.480469 8.660156 18.648438 8.496094 18.648438 8.292969 C 18.652344 8.085938 18.488281 7.917969 18.28125 7.917969 " fill-opacity="1" fill-rule="nonzero"/><path fill="#da9762" d="M 10.027344 9.988281 L 6.171875 9.945312 C 5.96875 9.945312 5.800781 10.109375 5.796875 10.3125 C 5.796875 10.515625 5.960938 10.683594 6.164062 10.6875 L 10.019531 10.730469 L 10.027344 9.988281 " fill-opacity="1" fill-rule="nonzero"/><path fill="#da9762" d="M 18.257812 10.082031 L 17.367188 10.070312 L 17.359375 10.8125 L 18.25 10.820312 C 18.453125 10.824219 18.625 10.660156 18.625 10.453125 C 18.628906 10.25 18.460938 10.082031 18.257812 10.082031 " fill-opacity="1" fill-rule="nonzero"/><path fill="#da9762" d="M 16.144531 10.058594 L 14.078125 10.035156 L 14.070312 10.773438 L 16.136719 10.796875 L 16.144531 10.058594 " fill-opacity="1" fill-rule="nonzero"/><path fill="#da9762" d="M 13.355469 10.027344 L 11.402344 10.003906 L 11.394531 10.746094 L 13.34375 10.765625 L 13.355469 10.027344 " fill-opacity="1" fill-rule="nonzero"/><path fill="#da9762" d="M 7.667969 12.183594 L 6.148438 12.167969 C 5.945312 12.164062 5.773438 12.328125 5.773438 12.535156 C 5.769531 12.738281 5.933594 12.90625 6.140625 12.90625 L 7.660156 12.925781 L 7.667969 12.183594 " fill-opacity="1" fill-rule="nonzero"/><path fill="#da9762" d="M 12.488281 12.238281 L 8.585938 12.195312 L 8.578125 12.933594 L 12.476562 12.980469 L 12.488281 12.238281 " fill-opacity="1" fill-rule="nonzero"/><path fill="#da9762" d="M 15.585938 12.273438 L 14.359375 12.257812 L 14.351562 13 L 15.574219 13.011719 L 15.585938 12.273438 " fill-opacity="1" fill-rule="nonzero"/><path fill="#da9762" d="M 17.265625 12.292969 L 16.3125 12.28125 L 16.300781 13.023438 L 17.257812 13.03125 L 17.265625 12.292969 " fill-opacity="1" fill-rule="nonzero"/><path fill="#da9762" d="M 10.28125 14.433594 L 8.523438 14.414062 L 8.515625 15.15625 L 10.273438 15.175781 L 10.28125 14.433594 " fill-opacity="1" fill-rule="nonzero"/><path fill="#da9762" d="M 18.207031 14.523438 L 11.65625 14.449219 L 11.652344 15.191406 L 18.199219 15.261719 C 18.402344 15.265625 18.574219 15.101562 18.574219 14.898438 C 18.578125 14.691406 18.414062 14.527344 18.207031 14.523438 " fill-opacity="1" fill-rule="nonzero"/><path fill="#da9762" d="M 7.605469 14.40625 L 6.125 14.390625 C 5.917969 14.386719 5.75 14.550781 5.746094 14.753906 C 5.746094 14.957031 5.910156 15.125 6.113281 15.128906 L 7.597656 15.144531 L 7.605469 14.40625 " fill-opacity="1" fill-rule="nonzero"/><path fill="#da9762" d="M 11.136719 16.664062 L 6.097656 16.609375 C 5.894531 16.605469 5.722656 16.773438 5.722656 16.972656 C 5.71875 17.179688 5.882812 17.347656 6.089844 17.351562 L 11.128906 17.40625 L 11.136719 16.664062 " fill-opacity="1" fill-rule="nonzero"/><path fill="#da9762" d="M 11.941406 16.675781 L 11.929688 17.414062 L 13 17.425781 L 13.011719 16.6875 L 11.941406 16.675781 " fill-opacity="1" fill-rule="nonzero"/><path fill="#da9762" d="M 14.003906 16.699219 L 13.996094 17.4375 L 15.488281 17.453125 L 15.496094 16.714844 L 14.003906 16.699219 " fill-opacity="1" fill-rule="nonzero"/><path fill="#da9762" d="M 18.179688 16.746094 L 16.757812 16.730469 L 16.75 17.46875 L 18.171875 17.484375 C 18.378906 17.488281 18.546875 17.324219 18.550781 17.117188 C 18.550781 16.914062 18.386719 16.746094 18.179688 16.746094 " fill-opacity="1" fill-rule="nonzero"/><path fill="#da9762" d="M 8.207031 18.855469 L 6.074219 18.832031 C 5.867188 18.828125 5.699219 18.992188 5.695312 19.199219 C 5.695312 19.402344 5.859375 19.570312 6.066406 19.570312 L 8.199219 19.59375 L 8.207031 18.855469 " fill-opacity="1" fill-rule="nonzero"/><path fill="#da9762" d="M 10.804688 18.882812 L 8.585938 18.859375 L 8.578125 19.597656 L 10.796875 19.621094 L 10.804688 18.882812 " fill-opacity="1" fill-rule="nonzero"/><path fill="#da9762" d="M 14.4375 18.925781 L 11.609375 18.894531 L 11.601562 19.632812 L 14.429688 19.664062 L 14.4375 18.925781 " fill-opacity="1" fill-rule="nonzero"/><path fill="#da9762" d="M 18.15625 18.964844 L 16.882812 18.953125 L 16.875 19.691406 L 18.148438 19.707031 C 18.355469 19.707031 18.523438 19.542969 18.523438 19.339844 C 18.527344 19.136719 18.363281 18.96875 18.15625 18.964844 " fill-opacity="1" fill-rule="nonzero"/><g clip-path="url(#586f5ba174)"><path fill="#44405c" d="M 16.90625 19.234375 L 18.238281 19.808594 C 19.714844 18.351562 22.171875 15.6875 24.367188 12.972656 L 23.75 12.152344 L 24.476562 12.835938 C 24.652344 12.617188 24.828125 12.398438 24.996094 12.183594 L 24.335938 10.75 L 25.46875 11.574219 C 27.785156 8.550781 29.511719 5.707031 28.90625 4.664062 C 28.90625 4.664062 27.328125 5.644531 25.480469 6.707031 L 26.242188 7.578125 L 25.289062 6.816406 C 24.132812 7.476562 22.890625 8.15625 21.875 8.640625 L 22.523438 9.15625 L 21.75 8.699219 C 21.304688 8.90625 20.90625 9.074219 20.585938 9.175781 C 19.703125 9.464844 18.226562 11.257812 16.804688 13.4375 L 17.84375 14.109375 L 16.664062 13.648438 C 14.542969 16.949219 12.59375 21.042969 12.988281 22.21875 C 12.988281 22.21875 14.945312 22.746094 17.394531 20.601562 C 17.554688 20.464844 17.742188 20.285156 17.960938 20.074219 L 16.90625 19.234375 " fill-opacity="1" fill-rule="nonzero"/></g><g clip-path="url(#979831d976)"><path fill="#fef9c6" d="M 9.707031 26.386719 C 9.707031 26.386719 12.742188 23.011719 15.640625 19.628906 L 15.140625 19.230469 C 12.617188 22.402344 10.121094 25.707031 9.707031 26.386719 " fill-opacity="1" fill-rule="nonzero"/></g><path fill="#2f2b3e" d="M 16.28125 17.808594 C 16.253906 17.839844 16.226562 17.875 16.199219 17.910156 C 16.183594 17.925781 16.167969 17.945312 16.152344 17.964844 L 16.066406 18.070312 C 16.054688 18.085938 16.042969 18.101562 16.03125 18.117188 C 16 18.15625 15.96875 18.191406 15.941406 18.230469 C 15.929688 18.246094 15.914062 18.257812 15.902344 18.273438 L 15.8125 18.386719 C 15.800781 18.402344 15.789062 18.417969 15.777344 18.433594 C 15.742188 18.472656 15.710938 18.515625 15.675781 18.558594 C 15.667969 18.566406 15.660156 18.578125 15.652344 18.585938 C 15.617188 18.632812 15.582031 18.675781 15.546875 18.71875 C 15.539062 18.730469 15.53125 18.738281 15.523438 18.746094 C 15.484375 18.796875 15.449219 18.84375 15.410156 18.890625 C 15.40625 18.894531 15.402344 18.902344 15.398438 18.90625 C 15.355469 18.957031 15.3125 19.011719 15.269531 19.066406 C 15.226562 19.121094 15.183594 19.175781 15.140625 19.230469 L 15.640625 19.628906 C 16.0625 19.136719 16.484375 18.644531 16.890625 18.160156 C 16.890625 18.160156 16.890625 18.160156 16.890625 18.15625 C 16.929688 18.113281 16.964844 18.070312 17.003906 18.027344 C 17.007812 18.023438 17.011719 18.015625 17.015625 18.011719 C 17.050781 17.972656 17.082031 17.933594 17.113281 17.894531 C 17.125 17.882812 17.132812 17.875 17.140625 17.863281 C 17.171875 17.824219 17.203125 17.789062 17.234375 17.75 C 17.242188 17.738281 17.253906 17.730469 17.261719 17.71875 C 17.292969 17.683594 17.320312 17.648438 17.347656 17.613281 C 17.359375 17.601562 17.371094 17.585938 17.386719 17.570312 C 17.410156 17.539062 17.4375 17.507812 17.464844 17.472656 C 17.480469 17.457031 17.492188 17.441406 17.503906 17.425781 C 17.53125 17.394531 17.558594 17.363281 17.585938 17.328125 L 17.621094 17.285156 C 17.648438 17.253906 17.675781 17.222656 17.699219 17.191406 C 17.714844 17.175781 17.726562 17.160156 17.742188 17.144531 C 17.765625 17.113281 17.792969 17.082031 17.816406 17.046875 C 17.832031 17.035156 17.84375 17.019531 17.855469 17.003906 C 17.878906 16.972656 17.90625 16.941406 17.933594 16.914062 C 17.945312 16.894531 17.960938 16.878906 17.972656 16.863281 C 18 16.832031 18.019531 16.804688 18.046875 16.773438 C 18.058594 16.757812 18.070312 16.742188 18.085938 16.726562 C 18.109375 16.695312 18.132812 16.667969 18.15625 16.636719 C 18.171875 16.621094 18.183594 16.605469 18.199219 16.585938 L 18.269531 16.5 C 18.28125 16.484375 18.296875 16.46875 18.308594 16.453125 C 18.332031 16.425781 18.355469 16.394531 18.378906 16.367188 C 18.390625 16.351562 18.40625 16.335938 18.417969 16.320312 C 18.441406 16.292969 18.464844 16.261719 18.484375 16.234375 C 18.5 16.21875 18.511719 16.203125 18.527344 16.1875 C 18.550781 16.160156 18.570312 16.132812 18.59375 16.105469 C 18.605469 16.085938 18.621094 16.070312 18.632812 16.054688 C 18.652344 16.027344 18.675781 16 18.699219 15.972656 C 18.710938 15.957031 18.722656 15.941406 18.734375 15.925781 C 18.757812 15.898438 18.78125 15.875 18.800781 15.847656 C 18.8125 15.832031 18.824219 15.816406 18.839844 15.800781 C 18.859375 15.773438 18.882812 15.746094 18.902344 15.71875 C 18.914062 15.703125 18.925781 15.6875 18.9375 15.671875 C 18.960938 15.648438 18.980469 15.621094 19 15.597656 C 19.015625 15.582031 19.027344 15.5625 19.039062 15.546875 C 19.058594 15.523438 19.078125 15.496094 19.097656 15.472656 C 19.113281 15.457031 19.125 15.441406 19.136719 15.425781 C 19.15625 15.402344 19.175781 15.375 19.195312 15.351562 C 19.207031 15.339844 19.214844 15.324219 19.226562 15.3125 C 19.246094 15.285156 19.265625 15.257812 19.289062 15.234375 C 19.296875 15.21875 19.308594 15.207031 19.316406 15.195312 C 19.339844 15.167969 19.359375 15.140625 19.378906 15.117188 C 19.386719 15.109375 19.394531 15.097656 19.402344 15.085938 C 19.476562 14.992188 19.546875 14.898438 19.613281 14.808594 C 19.621094 14.800781 19.632812 14.792969 19.636719 14.78125 C 19.652344 14.761719 19.667969 14.742188 19.6875 14.71875 C 19.695312 14.703125 19.707031 14.6875 19.71875 14.671875 C 19.734375 14.652344 19.75 14.632812 19.761719 14.617188 C 19.777344 14.601562 19.789062 14.582031 19.800781 14.566406 C 19.816406 14.546875 19.828125 14.527344 19.84375 14.511719 C 19.855469 14.496094 19.867188 14.480469 19.878906 14.464844 C 19.890625 14.445312 19.90625 14.425781 19.917969 14.410156 L 19.953125 14.363281 C 19.964844 14.34375 19.980469 14.328125 19.992188 14.3125 C 20.003906 14.296875 20.015625 14.28125 20.023438 14.265625 C 20.039062 14.25 20.050781 14.230469 20.0625 14.214844 C 20.074219 14.199219 20.085938 14.183594 20.097656 14.167969 L 20.128906 14.121094 C 20.140625 14.105469 20.152344 14.089844 20.164062 14.074219 C 20.175781 14.058594 20.183594 14.042969 20.195312 14.03125 C 20.207031 14.015625 20.214844 14 20.226562 13.984375 C 20.238281 13.972656 20.246094 13.957031 20.257812 13.941406 C 20.269531 13.925781 20.277344 13.914062 20.285156 13.898438 L 20.316406 13.855469 C 20.328125 13.84375 20.335938 13.828125 20.347656 13.816406 C 20.355469 13.800781 20.363281 13.785156 20.375 13.773438 C 20.382812 13.761719 20.390625 13.746094 20.402344 13.734375 C 20.410156 13.71875 20.417969 13.707031 20.429688 13.691406 L 20.453125 13.65625 C 20.460938 13.640625 20.46875 13.628906 20.476562 13.617188 C 20.488281 13.605469 20.496094 13.59375 20.503906 13.578125 C 20.511719 13.566406 20.519531 13.554688 20.527344 13.542969 C 20.53125 13.53125 20.542969 13.519531 20.550781 13.507812 L 20.570312 13.472656 C 20.578125 13.460938 20.585938 13.449219 20.589844 13.4375 C 20.597656 13.425781 20.605469 13.417969 20.609375 13.40625 C 20.617188 13.394531 20.625 13.382812 20.632812 13.375 L 20.648438 13.34375 C 20.65625 13.332031 20.660156 13.320312 20.667969 13.3125 C 20.671875 13.300781 20.675781 13.292969 20.683594 13.285156 C 20.6875 13.273438 20.695312 13.261719 20.699219 13.253906 C 20.703125 13.246094 20.707031 13.234375 20.714844 13.226562 C 20.71875 13.21875 20.722656 13.207031 20.726562 13.199219 C 20.730469 13.1875 20.734375 13.183594 20.742188 13.171875 C 20.746094 13.164062 20.75 13.15625 20.753906 13.144531 C 20.757812 13.140625 20.761719 13.132812 20.765625 13.125 C 20.769531 13.117188 20.769531 13.109375 20.773438 13.097656 L 20.785156 13.078125 C 20.789062 13.070312 20.789062 13.0625 20.792969 13.054688 C 20.796875 13.050781 20.796875 13.042969 20.800781 13.035156 C 20.804688 13.027344 20.804688 13.023438 20.804688 13.015625 C 20.808594 13.007812 20.8125 13.003906 20.8125 12.996094 C 20.8125 12.992188 20.816406 12.984375 20.816406 12.976562 C 20.816406 12.972656 20.820312 12.96875 20.820312 12.964844 C 20.824219 12.957031 20.824219 12.953125 20.824219 12.945312 C 20.824219 12.941406 20.824219 12.9375 20.824219 12.933594 C 20.828125 12.925781 20.828125 12.921875 20.828125 12.917969 L 20.828125 12.90625 C 20.824219 12.898438 20.824219 12.890625 20.824219 12.882812 C 20.820312 12.878906 20.816406 12.871094 20.816406 12.867188 C 20.8125 12.863281 20.8125 12.863281 20.8125 12.863281 L 20.804688 12.851562 C 20.800781 12.851562 20.800781 12.851562 20.796875 12.851562 C 20.796875 12.847656 20.792969 12.847656 20.789062 12.847656 C 20.785156 12.84375 20.785156 12.84375 20.78125 12.84375 C 20.777344 12.84375 20.773438 12.84375 20.769531 12.84375 L 20.761719 12.84375 C 20.757812 12.84375 20.753906 12.84375 20.75 12.84375 C 20.746094 12.847656 20.742188 12.847656 20.738281 12.847656 C 20.734375 12.847656 20.726562 12.851562 20.722656 12.851562 C 20.71875 12.851562 20.714844 12.855469 20.710938 12.859375 C 20.703125 12.859375 20.699219 12.863281 20.695312 12.863281 C 20.691406 12.867188 20.683594 12.867188 20.679688 12.871094 L 20.664062 12.878906 C 20.65625 12.882812 20.652344 12.886719 20.644531 12.890625 C 20.640625 12.894531 20.632812 12.898438 20.625 12.902344 L 20.609375 12.914062 L 20.585938 12.925781 C 20.582031 12.933594 20.574219 12.9375 20.570312 12.941406 C 20.558594 12.949219 20.554688 12.953125 20.546875 12.957031 C 20.539062 12.964844 20.53125 12.96875 20.527344 12.976562 C 20.515625 12.980469 20.507812 12.988281 20.5 12.992188 C 20.492188 13 20.484375 13.007812 20.476562 13.011719 C 20.46875 13.019531 20.460938 13.027344 20.453125 13.035156 C 20.445312 13.039062 20.4375 13.046875 20.429688 13.054688 C 20.421875 13.058594 20.410156 13.070312 20.402344 13.078125 C 20.394531 13.085938 20.386719 13.089844 20.378906 13.097656 C 20.367188 13.109375 20.359375 13.117188 20.347656 13.125 C 20.339844 13.132812 20.332031 13.140625 20.320312 13.148438 C 20.3125 13.15625 20.300781 13.167969 20.289062 13.175781 C 20.28125 13.1875 20.273438 13.191406 20.265625 13.203125 C 20.253906 13.210938 20.242188 13.222656 20.230469 13.234375 C 20.222656 13.242188 20.210938 13.25 20.203125 13.257812 C 20.191406 13.273438 20.179688 13.285156 20.167969 13.292969 C 20.15625 13.304688 20.148438 13.3125 20.140625 13.320312 L 20.101562 13.359375 C 20.089844 13.367188 20.082031 13.378906 20.074219 13.386719 C 20.058594 13.402344 20.042969 13.417969 20.03125 13.429688 C 20.019531 13.4375 20.011719 13.449219 20.003906 13.457031 C 19.988281 13.472656 19.972656 13.492188 19.953125 13.507812 C 19.949219 13.515625 19.941406 13.523438 19.933594 13.53125 C 19.882812 13.582031 19.832031 13.632812 19.78125 13.6875 C 19.773438 13.695312 19.761719 13.707031 19.757812 13.714844 C 19.738281 13.734375 19.71875 13.75 19.703125 13.769531 C 19.691406 13.78125 19.679688 13.792969 19.667969 13.804688 C 19.652344 13.824219 19.636719 13.839844 19.621094 13.859375 C 19.609375 13.871094 19.597656 13.882812 19.589844 13.894531 C 19.570312 13.910156 19.554688 13.929688 19.539062 13.949219 C 19.527344 13.964844 19.511719 13.976562 19.5 13.988281 C 19.484375 14.007812 19.46875 14.023438 19.453125 14.042969 C 19.441406 14.058594 19.425781 14.070312 19.414062 14.085938 C 19.398438 14.101562 19.378906 14.121094 19.363281 14.140625 C 19.351562 14.15625 19.335938 14.167969 19.324219 14.183594 C 19.308594 14.203125 19.289062 14.222656 19.273438 14.242188 C 19.261719 14.257812 19.246094 14.273438 19.234375 14.285156 C 19.214844 14.304688 19.199219 14.324219 19.183594 14.34375 C 19.167969 14.359375 19.152344 14.375 19.140625 14.390625 C 19.121094 14.410156 19.105469 14.429688 19.085938 14.449219 C 19.074219 14.464844 19.058594 14.480469 19.046875 14.496094 C 19.027344 14.519531 19.007812 14.539062 18.992188 14.558594 C 18.976562 14.574219 18.964844 14.589844 18.949219 14.609375 C 18.929688 14.628906 18.910156 14.648438 18.894531 14.671875 C 18.878906 14.6875 18.863281 14.703125 18.847656 14.722656 C 18.832031 14.742188 18.8125 14.761719 18.796875 14.785156 C 18.78125 14.800781 18.761719 14.820312 18.746094 14.839844 C 18.730469 14.859375 18.710938 14.878906 18.691406 14.902344 L 18.644531 14.957031 C 18.625 14.980469 18.609375 15 18.589844 15.023438 C 18.574219 15.039062 18.558594 15.058594 18.542969 15.074219 C 18.523438 15.101562 18.5 15.125 18.480469 15.148438 C 18.46875 15.164062 18.453125 15.183594 18.4375 15.199219 C 18.417969 15.222656 18.398438 15.25 18.375 15.273438 C 18.359375 15.289062 18.34375 15.308594 18.332031 15.324219 L 18.265625 15.402344 C 18.25 15.417969 18.238281 15.433594 18.222656 15.453125 C 18.199219 15.480469 18.179688 15.507812 18.15625 15.53125 L 18.113281 15.582031 C 18.085938 15.613281 18.0625 15.640625 18.035156 15.671875 C 18.027344 15.683594 18.015625 15.699219 18 15.714844 C 17.972656 15.75 17.945312 15.78125 17.914062 15.816406 C 17.90625 15.828125 17.898438 15.835938 17.890625 15.847656 C 17.855469 15.886719 17.824219 15.925781 17.789062 15.964844 C 17.785156 15.972656 17.78125 15.976562 17.773438 15.984375 C 17.699219 16.078125 17.621094 16.171875 17.539062 16.265625 C 17.535156 16.273438 17.527344 16.28125 17.519531 16.292969 C 17.488281 16.332031 17.457031 16.367188 17.425781 16.40625 C 17.414062 16.417969 17.402344 16.429688 17.394531 16.441406 C 17.363281 16.480469 17.332031 16.515625 17.304688 16.554688 C 17.292969 16.566406 17.285156 16.574219 17.277344 16.585938 C 17.246094 16.625 17.214844 16.660156 17.183594 16.699219 C 17.171875 16.710938 17.160156 16.726562 17.148438 16.738281 C 17.121094 16.773438 17.09375 16.808594 17.066406 16.84375 C 17.050781 16.859375 17.039062 16.875 17.027344 16.890625 C 16.996094 16.925781 16.96875 16.957031 16.941406 16.992188 C 16.929688 17.007812 16.917969 17.023438 16.902344 17.042969 C 16.875 17.074219 16.847656 17.105469 16.820312 17.140625 C 16.808594 17.160156 16.792969 17.175781 16.777344 17.195312 C 16.75 17.226562 16.722656 17.261719 16.695312 17.292969 C 16.683594 17.308594 16.667969 17.328125 16.65625 17.34375 C 16.628906 17.378906 16.601562 17.410156 16.574219 17.445312 C 16.558594 17.464844 16.546875 17.480469 16.53125 17.496094 C 16.503906 17.53125 16.476562 17.566406 16.449219 17.601562 C 16.433594 17.617188 16.421875 17.632812 16.40625 17.648438 C 16.378906 17.683594 16.351562 17.71875 16.320312 17.757812 C 16.308594 17.773438 16.292969 17.789062 16.28125 17.808594 " fill-opacity="1" fill-rule="nonzero"/><g clip-path="url(#8716ca08f1)"><path fill="#30384d" d="M 9.707031 26.386719 C 9.707031 26.386719 10.613281 25.8125 10.765625 25.367188 C 10.914062 24.925781 9.996094 25.242188 9.707031 26.386719 " fill-opacity="1" fill-rule="nonzero"/><path fill="#120d11" d="M 9.9375 25.808594 C 9.84375 25.96875 9.765625 26.164062 9.707031 26.386719 C 9.707031 26.386719 10.144531 26.109375 10.464844 25.792969 C 10.296875 25.851562 10.109375 25.859375 9.9375 25.808594 " fill-opacity="1" fill-rule="nonzero"/></g></svg>