<svg xmlns="http://www.w3.org/2000/svg" xmlns:xlink="http://www.w3.org/1999/xlink" width="40" zoomAndPan="magnify" viewBox="0 0 30 30.000001" height="40" preserveAspectRatio="xMidYMid meet" version="1.0"><defs><clipPath id="ab20b08882"><path d="M 4.730469 4.246094 L 25.050781 4.246094 L 25.050781 24.570312 L 4.730469 24.570312 Z M 4.730469 4.246094 " clip-rule="nonzero"/></clipPath></defs><g clip-path="url(#ab20b08882)"><path fill="#ffffff" d="M 19.5625 20.21875 L 19.5625 19.078125 L 16.140625 19.078125 L 16.140625 15.65625 L 19.5625 15.65625 L 19.5625 17.9375 L 21.84375 17.9375 L 21.84375 20.21875 L 20.703125 20.21875 L 20.703125 22.503906 L 18.421875 22.503906 L 18.421875 24.785156 L 16.140625 24.785156 L 16.140625 21.359375 L 18.421875 21.359375 L 18.421875 20.21875 Z M 25.269531 24.785156 L 20.703125 24.785156 L 20.703125 22.503906 L 22.984375 22.503906 L 22.984375 20.21875 L 25.269531 20.21875 Z M 4.730469 4.246094 L 13.859375 4.246094 L 13.859375 13.375 L 4.730469 13.375 Z M 16.140625 4.246094 L 25.269531 4.246094 L 25.269531 13.375 L 16.140625 13.375 Z M 4.730469 15.65625 L 13.859375 15.65625 L 13.859375 24.785156 L 4.730469 24.785156 Z M 21.84375 15.65625 L 25.269531 15.65625 L 25.269531 17.9375 L 21.84375 17.9375 Z M 8.152344 7.667969 L 8.152344 9.949219 L 10.433594 9.949219 L 10.433594 7.667969 Z M 8.152344 19.078125 L 8.152344 21.359375 L 10.433594 21.359375 L 10.433594 19.078125 Z M 19.5625 7.667969 L 19.5625 9.949219 L 21.84375 9.949219 L 21.84375 7.667969 Z M 19.5625 7.667969 " fill-opacity="1" fill-rule="nonzero"/></g></svg>