<svg xmlns="http://www.w3.org/2000/svg" xmlns:xlink="http://www.w3.org/1999/xlink" width="40" zoomAndPan="magnify" viewBox="0 0 30 30.000001" height="40" preserveAspectRatio="xMidYMid meet" version="1.0"><defs><clipPath id="fcbbc949fe"><path d="M 8 0.628906 L 12 0.628906 L 12 4 L 8 4 Z M 8 0.628906 " clip-rule="nonzero"/></clipPath><clipPath id="45031654eb"><path d="M 18 0.628906 L 22 0.628906 L 22 4 L 18 4 Z M 18 0.628906 " clip-rule="nonzero"/></clipPath><clipPath id="6edc9663e7"><path d="M 14 0.628906 L 16 0.628906 L 16 4 L 14 4 Z M 14 0.628906 " clip-rule="nonzero"/></clipPath><clipPath id="212d347624"><path d="M 13 0.628906 L 18 0.628906 L 18 5 L 13 5 Z M 13 0.628906 " clip-rule="nonzero"/></clipPath><clipPath id="649a857367"><path d="M 5 16 L 25 16 L 25 28.210938 L 5 28.210938 Z M 5 16 " clip-rule="nonzero"/></clipPath><clipPath id="fe27cc3e48"><path d="M 4.925781 14 L 25.25 14 L 25.25 28.210938 L 4.925781 28.210938 Z M 4.925781 14 " clip-rule="nonzero"/></clipPath><clipPath id="97368603ca"><path d="M 4.925781 25 L 25.25 25 L 25.25 28.210938 L 4.925781 28.210938 Z M 4.925781 25 " clip-rule="nonzero"/></clipPath><clipPath id="a760ff27b8"><path d="M 11 18 L 19 18 L 19 28.210938 L 11 28.210938 Z M 11 18 " clip-rule="nonzero"/></clipPath><clipPath id="31253b8197"><path d="M 10 17 L 20 17 L 20 28.210938 L 10 28.210938 Z M 10 17 " clip-rule="nonzero"/></clipPath><clipPath id="9e00471069"><path d="M 11 18 L 19 18 L 19 28.210938 L 11 28.210938 Z M 11 18 " clip-rule="nonzero"/></clipPath><clipPath id="ec4c03236d"><path d="M 13 18 L 17 18 L 17 28.210938 L 13 28.210938 Z M 13 18 " clip-rule="nonzero"/></clipPath></defs><path stroke-linecap="butt" transform="matrix(0.0739395, 0, 0, 0.0739395, -12.539034, -3.939633)" fill-opacity="1" fill="#bfbfbf" fill-rule="evenodd" stroke-linejoin="miter" d="M 412.340321 137.968836 L 471.140475 137.968836 L 471.140475 263.810676 L 412.340321 263.810676 Z M 412.340321 137.968836 " stroke="#000000" stroke-width="2.871" stroke-opacity="1" stroke-miterlimit="4"/><path stroke-linecap="butt" transform="matrix(0.0739395, 0, 0, 0.0739395, -12.539034, -3.939633)" fill-opacity="1" fill="#bfbfbf" fill-rule="evenodd" stroke-linejoin="miter" d="M 343.026931 137.968836 L 401.774255 137.968836 L 401.774255 263.810676 L 343.026931 263.810676 Z M 343.026931 137.968836 " stroke="#000000" stroke-width="2.871" stroke-opacity="1" stroke-miterlimit="4"/><path stroke-linecap="butt" transform="matrix(0.0739395, 0, 0, 0.0739395, -12.539034, -3.939633)" fill-opacity="1" fill="#bfbfbf" fill-rule="evenodd" stroke-linejoin="miter" d="M 274.241844 137.968836 L 333.041999 137.968836 L 333.041999 263.810676 L 274.241844 263.810676 Z M 274.241844 137.968836 " stroke="#000000" stroke-width="2.871" stroke-opacity="1" stroke-miterlimit="4"/><g clip-path="url(#fcbbc949fe)"><path stroke-linecap="butt" transform="matrix(0.169817, 0, 0, 0.169817, -12.496887, -3.925585)" fill-opacity="1" fill="#bfbfbf" fill-rule="evenodd" stroke-linejoin="round" d="M 131.948231 44.762123 L 129.463938 40.391608 L 124.449347 40.437613 L 127.002648 36.113103 L 124.47235 31.788593 L 129.486941 31.834599 L 131.948231 27.487086 L 134.409522 31.834599 L 139.424113 31.811596 L 136.893815 36.113103 L 139.424113 40.437613 L 134.409522 40.391608 Z M 131.948231 44.762123 " stroke="#000000" stroke-width="1.25" stroke-opacity="1" stroke-miterlimit="4"/></g><g clip-path="url(#45031654eb)"><path stroke-linecap="butt" transform="matrix(0.169817, 0, 0, 0.169817, -2.292492, -3.865915)" fill-opacity="1" fill="#bfbfbf" fill-rule="evenodd" stroke-linejoin="round" d="M 131.940751 44.755788 L 129.479461 40.385272 L 124.46487 40.431278 L 126.995168 36.106768 L 124.46487 31.782258 L 129.479461 31.828263 L 131.963754 27.480751 L 134.425044 31.851266 L 139.439636 31.805261 L 136.886334 36.129771 L 139.416633 40.454281 L 134.402042 40.408275 Z M 131.940751 44.755788 " stroke="#000000" stroke-width="1.25" stroke-opacity="1" stroke-miterlimit="4"/></g><path stroke-linecap="butt" transform="matrix(0.0739395, 0, 0, 0.0739395, -12.539034, -3.939633)" fill-opacity="1" fill="#bfbfbf" fill-rule="evenodd" stroke-linejoin="miter" d="M 270.121079 109.281968 L 281.849412 109.440459 L 281.53243 123.282005 L 290.460755 123.387665 L 290.460755 109.123477 L 299.917384 109.123477 L 299.811723 123.387665 L 308.317406 123.387665 L 308.317406 109.281968 L 318.196677 109.440459 L 318.038186 123.387665 L 324.694807 123.387665 L 324.694807 109.123477 L 336.264649 109.123477 L 336.42314 136.542417 C 336.42314 138.444309 333.675963 139.183933 331.457089 139.236764 C 312.649493 139.553746 293.736235 139.606576 274.928639 139.236764 C 272.709765 139.183933 270.121079 137.757514 270.121079 135.802792 Z M 270.121079 109.281968 " stroke="#000000" stroke-width="2.858" stroke-opacity="1" stroke-miterlimit="4"/><path stroke-linecap="butt" transform="matrix(0.0739395, 0, 0, 0.0739395, -12.539034, -3.939633)" fill-opacity="1" fill="#bfbfbf" fill-rule="evenodd" stroke-linejoin="miter" d="M 408.747859 109.281968 L 420.634682 109.440459 L 420.3177 123.282005 L 429.298856 123.387665 L 429.298856 109.123477 L 438.861145 109.123477 L 438.755485 123.387665 L 447.313998 123.387665 L 447.313998 109.281968 L 457.29893 109.440459 L 457.140439 123.387665 L 463.84989 123.387665 L 463.84989 109.123477 L 475.525393 109.123477 L 475.683884 136.542417 C 475.683884 138.444309 472.936707 139.183933 470.717833 139.236764 C 451.698915 139.553746 432.627167 139.606576 413.608249 139.236764 C 411.389375 139.183933 408.747859 137.757514 408.747859 135.802792 Z M 408.747859 109.281968 " stroke="#000000" stroke-width="2.871" stroke-opacity="1" stroke-miterlimit="4"/><g clip-path="url(#6edc9663e7)"><path fill="#bfbfbf" d="M 14.871094 0.996094 L 15.210938 0.996094 L 15.21875 1.339844 L 15.734375 1.335938 L 15.742188 1.691406 L 15.222656 1.707031 L 15.222656 2.496094 C 15.597656 2.511719 15.914062 2.980469 15.851562 3.402344 L 14.210938 3.375 C 14.160156 2.972656 14.445312 2.519531 14.859375 2.5 L 14.867188 1.707031 L 14.367188 1.699219 L 14.367188 1.339844 L 14.867188 1.339844 Z M 14.871094 0.996094 " fill-opacity="1" fill-rule="evenodd"/></g><g clip-path="url(#212d347624)"><path stroke-linecap="butt" transform="matrix(0.0739395, 0, 0, 0.0739395, -12.539034, -3.939633)" fill="none" stroke-linejoin="miter" d="M 370.710023 66.753554 L 375.306261 66.753554 L 375.411922 71.402623 L 382.385525 71.349793 L 382.491186 76.157352 L 375.464752 76.368674 L 375.464752 87.0404 C 380.536464 87.251721 384.81572 93.591361 383.970435 99.297036 L 361.781697 98.927224 C 361.094903 93.4857 364.951517 87.357382 370.551532 87.09323 L 370.657192 76.368674 L 363.89491 76.263013 L 363.89491 71.402623 L 370.657192 71.402623 Z M 370.710023 66.753554 " stroke="#000000" stroke-width="2.871" stroke-opacity="1" stroke-miterlimit="4"/></g><path stroke-linecap="butt" transform="matrix(0.0739395, 0, 0, 0.0739395, -12.539034, -3.939633)" fill-opacity="1" fill="#bfbfbf" fill-rule="evenodd" stroke-linejoin="miter" d="M 400.506327 124.866914 L 345.298635 124.866914 C 345.298635 109.65178 357.660932 97.236653 372.928896 97.236653 C 388.144031 97.236653 400.506327 109.65178 400.506327 124.866914 Z M 400.506327 124.866914 " stroke="#000000" stroke-width="2.871" stroke-opacity="1" stroke-miterlimit="4"/><path stroke-linecap="butt" transform="matrix(0.0739395, 0, 0, 0.0739395, -12.539034, -3.939633)" fill-opacity="1" fill="#bfbfbf" fill-rule="evenodd" stroke-linejoin="miter" d="M 260.55879 239.614386 L 260.188977 269.991824 L 481.706541 269.991824 L 482.076353 239.614386 L 462.898944 239.614386 L 462.951775 255.569145 L 449.532871 255.674806 L 449.480041 239.614386 L 431.042257 239.614386 L 430.936596 255.516315 L 417.464863 255.569145 L 417.517693 239.720047 L 398.445945 239.720047 L 398.340284 255.463484 L 383.547792 255.463484 L 383.072319 239.614386 L 364.317553 239.720047 L 364.423214 255.516315 L 349.049588 255.516315 L 349.049588 239.772877 L 329.872179 239.667216 L 330.136331 255.569145 L 315.555161 255.569145 L 315.50233 239.720047 L 297.75134 239.720047 L 297.75134 255.674806 L 282.747527 255.516315 L 282.589036 239.614386 Z M 260.55879 239.614386 " stroke="#000000" stroke-width="2.871" stroke-opacity="1" stroke-miterlimit="4"/><path stroke-linecap="butt" transform="matrix(0.0739395, 0, 0, 0.0739395, -12.539034, -3.939633)" fill-opacity="1" fill="#bfbfbf" fill-rule="evenodd" stroke-linejoin="miter" d="M 340.279754 124.708423 L 404.362941 124.602763 L 404.468602 136.542417 C 404.521432 138.444309 401.879916 139.183933 399.661042 139.236764 C 381.434579 139.553746 363.155286 139.606576 344.928823 139.236764 C 342.81561 139.183933 340.279754 137.757514 340.279754 135.802792 Z M 340.279754 124.708423 " stroke="#000000" stroke-width="2.812" stroke-opacity="1" stroke-miterlimit="4"/><g clip-path="url(#649a857367)"><path fill="#bfbfbf" d="M 5.03125 28.285156 L 24.917969 28.203125 L 24.957031 26.738281 C 23.453125 24.707031 22.925781 19.253906 23.003906 16 L 6.820312 16 C 6.820312 16 7.550781 21.289062 5.070312 26.902344 Z M 5.03125 28.285156 " fill-opacity="1" fill-rule="evenodd"/></g><g clip-path="url(#fe27cc3e48)"><path stroke-linecap="butt" transform="matrix(0.0739395, 0, 0, 0.0739395, -12.539034, -3.939633)" fill="none" stroke-linejoin="miter" d="M 237.630427 435.826223 L 506.589625 434.716786 L 507.117929 414.905413 C 486.778252 387.433643 479.646158 313.682505 480.702765 269.674842 L 261.826717 269.674842 C 261.826717 269.674842 271.705989 341.207106 238.158731 417.124287 Z M 237.630427 435.826223 " stroke="#000000" stroke-width="2.871" stroke-opacity="1" stroke-miterlimit="4"/></g><g clip-path="url(#97368603ca)"><path stroke-linecap="butt" transform="matrix(0.0739395, 0, 0, 0.0739395, -12.539034, -3.939633)" fill="none" stroke-linejoin="miter" d="M 237.630427 416.543153 L 507.699062 415.433716 " stroke="#000000" stroke-width="2.871" stroke-opacity="1" stroke-miterlimit="4"/></g><g clip-path="url(#a760ff27b8)"><path fill="#bfbfbf" d="M 18.207031 28.203125 L 11.902344 28.222656 L 11.902344 21.046875 C 12.390625 17.417969 17.800781 17.433594 18.167969 21.085938 Z M 18.207031 28.203125 " fill-opacity="1" fill-rule="evenodd"/></g><g clip-path="url(#31253b8197)"><path stroke-linecap="butt" transform="matrix(0.0739395, 0, 0, 0.0739395, -12.539034, -3.939633)" fill="none" stroke-linejoin="miter" d="M 415.827122 434.716786 L 330.558974 434.980938 L 330.558974 337.931626 C 337.162765 288.852251 410.332768 289.063573 415.298819 338.459929 Z M 415.827122 434.716786 " stroke="#000000" stroke-width="2.871" stroke-opacity="1" stroke-miterlimit="4"/></g><g clip-path="url(#9e00471069)"><path stroke-linecap="butt" transform="matrix(0.0739395, 0, 0, 0.0739395, -12.539034, -3.939633)" fill="none" stroke-linejoin="miter" d="M 343.766556 436.354526 L 343.766556 348.3392 C 348.309964 304.490028 398.445945 304.648519 401.879916 348.814673 L 402.619541 436.354526 " stroke="#000000" stroke-width="2.248" stroke-opacity="1" stroke-miterlimit="4"/></g><g clip-path="url(#ec4c03236d)"><path stroke-linecap="butt" transform="matrix(0.0739395, 0, 0, 0.0739395, -12.539034, -3.939633)" fill="none" stroke-linejoin="miter" d="M 373.4572 315.901379 L 374.038333 436.354526 " stroke="#000000" stroke-width="2.871" stroke-opacity="1" stroke-miterlimit="4"/></g><path fill="#000000" d="M 13.789062 26.097656 L 13.796875 26.65625 C 13.625 26.660156 13.445312 26.601562 13.4375 26.464844 L 12.945312 26.46875 L 12.945312 26.277344 L 13.429688 26.277344 C 13.410156 26.144531 13.5625 26.070312 13.789062 26.097656 Z M 13.789062 26.097656 " fill-opacity="1" fill-rule="evenodd"/><path fill="#000000" d="M 16.308594 26.097656 C 16.308594 26.285156 16.304688 26.46875 16.304688 26.65625 C 16.476562 26.660156 16.65625 26.601562 16.660156 26.464844 L 17.152344 26.46875 L 17.152344 26.277344 L 16.667969 26.277344 C 16.6875 26.144531 16.535156 26.070312 16.308594 26.097656 Z M 16.308594 26.097656 " fill-opacity="1" fill-rule="evenodd"/><path fill="#000000" d="M 16.308594 21.5 C 16.308594 21.6875 16.304688 21.871094 16.304688 22.058594 C 16.476562 22.066406 16.65625 22.003906 16.660156 21.867188 L 17.152344 21.871094 L 17.152344 21.679688 L 16.667969 21.679688 C 16.6875 21.546875 16.535156 21.476562 16.308594 21.5 Z M 16.308594 21.5 " fill-opacity="1" fill-rule="evenodd"/><path fill="#000000" d="M 13.78125 21.515625 C 13.785156 21.699219 13.785156 21.886719 13.789062 22.070312 C 13.617188 22.078125 13.4375 22.019531 13.429688 21.878906 L 12.941406 21.886719 L 12.941406 21.695312 L 13.425781 21.695312 C 13.402344 21.5625 13.558594 21.488281 13.78125 21.515625 Z M 13.78125 21.515625 " fill-opacity="1" fill-rule="evenodd"/></svg>